<?xml version="1.0" encoding="UTF-8" standalone="no"?>
<svg
   xmlns:dc="http://purl.org/dc/elements/1.1/"
   xmlns:cc="http://creativecommons.org/ns#"
   xmlns:rdf="http://www.w3.org/1999/02/22-rdf-syntax-ns#"
   xmlns:svg="http://www.w3.org/2000/svg"
   xmlns="http://www.w3.org/2000/svg"
   xmlns:sodipodi="http://sodipodi.sourceforge.net/DTD/sodipodi-0.dtd"
   xmlns:inkscape="http://www.inkscape.org/namespaces/inkscape"
   enable-background="new 0 0 55 55"
   height="55px"
   version="1.1"
   viewBox="0 0 55 55"
   width="55px"
   x="0px"
   xml:space="preserve"
   y="0px"
   id="svg2"
   inkscape:version="0.48.4 r9939"
   sodipodi:docname="edit-paste.svg"><metadata
     id="metadata22"><rdf:RDF><cc:Work
         rdf:about=""><dc:format>image/svg+xml</dc:format><dc:type
           rdf:resource="http://purl.org/dc/dcmitype/StillImage" /><dc:title></dc:title></cc:Work></rdf:RDF></metadata><defs
     id="defs20" /><sodipodi:namedview
     pagecolor="#ffffff"
     bordercolor="#666666"
     borderopacity="1"
     objecttolerance="10"
     gridtolerance="10"
     guidetolerance="10"
     inkscape:pageopacity="0"
     inkscape:pageshadow="2"
     inkscape:window-width="640"
     inkscape:window-height="480"
     id="namedview18"
     showgrid="false"
     inkscape:zoom="4.2909091"
     inkscape:cx="27.5"
     inkscape:cy="27.5"
     inkscape:window-x="0"
     inkscape:window-y="31"
     inkscape:window-maximized="0"
     inkscape:current-layer="svg2" /><polygon
     style="fill:#ffffff"
     id="polygon8"
     points="11.386,36.159 32.109,36.159 32.109,9.173 20.773,9.173 11.386,18.559 " /><polygon
     style="fill:none;stroke:#010101;stroke-width:2.98670006;stroke-linecap:round"
     id="polygon10"
     points="11.386,36.159 32.109,36.159 32.109,9.173 20.773,9.173 11.386,18.559 " /><polyline
     style="fill:none;stroke:#010101;stroke-width:2.98670006"
     id="polyline12"
     points="11.386,18.559 20.773,18.559 20.773,9.173    " /><g
     id="g3089"
     transform="matrix(0.43025791,0,0,0.43025791,32.965232,30.499134)"><g
       style="display:inline"
       inkscape:label="status"
       id="layer9"
       transform="translate(-40,-636)" /><g
       inkscape:label="devices"
       id="layer10"
       transform="translate(-40,-636)" /><g
       inkscape:label="apps"
       id="layer11"
       transform="translate(-40,-636)" /><g
       inkscape:label="actions"
       id="layer12"
       transform="translate(-40,-636)"><path
         inkscape:connector-curvature="0"
         style="font-size:medium;font-style:normal;font-variant:normal;font-weight:normal;font-stretch:normal;text-indent:0;text-align:start;text-decoration:none;line-height:normal;letter-spacing:normal;word-spacing:normal;text-transform:none;direction:ltr;block-progression:tb;writing-mode:lr-tb;text-anchor:start;color:#000000;fill:#ffffff;fill-opacity:1;stroke:none;stroke-width:4.79973984;marker:none;visibility:visible;display:inline;overflow:visible;enable-background:accumulate;font-family:Bitstream Vera Sans;-inkscape-font-specification:Bitstream Vera Sans"
         id="path3940"
         d="m 49.838164,664.23468 c -5.361069,0 -9.830432,4.43307 -9.830432,9.88924 0,5.45617 4.469363,9.88924 9.830432,9.88924 5.36107,0 9.830431,-4.43307 9.830431,-9.88924 0,-5.45617 -4.469361,-9.88924 -9.830431,-9.88924 z m 0,5.70391 c 2.4121,0 4.244135,1.86835 4.244135,4.18533 0,2.31701 -1.832035,4.18533 -4.244135,4.18533 -2.412099,0 -4.244136,-1.86832 -4.244136,-4.18533 0,-2.31698 1.832037,-4.18533 4.244136,-4.18533 z" /><path
         inkscape:connector-curvature="0"
         style="font-size:medium;font-style:normal;font-variant:normal;font-weight:normal;font-stretch:normal;text-indent:0;text-align:start;text-decoration:none;line-height:normal;letter-spacing:normal;word-spacing:normal;text-transform:none;direction:ltr;block-progression:tb;writing-mode:lr-tb;text-anchor:start;color:#000000;fill:#ffffff;fill-opacity:1;stroke:none;stroke-width:4.79973984;marker:none;visibility:visible;display:inline;overflow:visible;enable-background:accumulate;font-family:Bitstream Vera Sans;-inkscape-font-specification:Bitstream Vera Sans"
         id="path3942"
         d="m 75.172383,664.23471 c -5.361071,0 -9.830433,4.43307 -9.830433,9.88921 0,5.45617 4.469362,9.88924 9.830433,9.88924 5.361072,0 9.830433,-4.43307 9.830433,-9.88924 0,-5.45614 -4.469361,-9.88921 -9.830433,-9.88921 z m 0,5.70388 c 2.412098,0 4.244137,1.86835 4.244137,4.18533 0,2.31701 -1.832039,4.18536 -4.244137,4.18536 -2.412101,0 -4.244137,-1.86835 -4.244137,-4.18536 0,-2.31698 1.832036,-4.18533 4.244137,-4.18533 z" /><path
         style="fill:#ffffff;fill-opacity:1;stroke:none"
         sodipodi:nodetypes="ccccccccccccc"
         id="rect4875"
         d="m 48.701254,638.93749 c -2.984965,1.55947 -3.959226,4.952 -2.235863,7.65306 l 12.44306,20.4961 -4.91565,6.66558 3.98052,5.86957 4.531954,-6.9933 4.443988,6.9933 3.944082,-5.62079 -4.791248,-6.91436 12.44306,-20.4961 c 1.723363,-2.70106 0.749103,-6.09359 -2.235863,-7.65306 L 62.505275,661.45682 48.701254,638.93749 z"
         inkscape:connector-curvature="0" /></g><g
       inkscape:label="places"
       id="layer13"
       transform="translate(-40,-636)" /><g
       inkscape:label="mimetypes"
       id="layer14"
       transform="translate(-40,-636)" /><g
       style="display:inline"
       inkscape:label="emblems"
       id="layer15"
       transform="translate(-40,-636)" /></g></svg>